PathFileType        4      (X/Y/Z)      Abduction.trc         																																																																												
DataRate	CameraRate	NumFrames	NumMarkers	Units	OrigDataRate	OrigDataStartFrame	OrigNumFrames																																																																					
100	100	6	25	mm	100	1743	1991																																																																					
Frame#	Time	AA			AI			Ant_Sh			CV7			GH			LAH			Lat_Sh			LCAJ			LPH			Post_Sh			RAH			RCAJ			RHLE			RHME			RPH			RUA			SJN			SXS			TS			TV8			centelbow			centpxt8			centijc7			centLPHRPH			ScapulaThoracicContactPt		
		X1	Y1	Z1	X2	Y2	Z2	X3	Y3	Z3	X4	Y4	Z4	X5	Y5	Z5	X6	Y6	Z6	X7	Y7	Z7	X8	Y8	Z8	X9	Y9	Z9	X10	Y10	Z10	X11	Y11	Z11	X12	Y12	Z12	X13	Y13	Z13	X14	Y14	Z14	X15	Y15	Z15	X16	Y16	Z16	X17	Y17	Z17	X18	Y18	Z18	X19	Y19	Z19	X20	Y20	Z20	X21	Y21	Z21	X22	Y22	Z22	X23	Y23	Z23	X24	Y24	Z24	X25	Y25	Z25
1743	17.42	-460.5063782	1532.839233	-5.985569	-518.0551147	1362.118896	-82.9548645	-350.6646423	1493.133789	-8.135308266	-462.7206421	1598.147339	-197.2050629	-406.3691711	1494.505127	-9.479123116	-249.295929	1769.343872	-251.7692871	-406.7327271	1510.898071	22.31933975	-398.4605713	1564.462891	-381.2897949	-454.6944275	1724.503418	-249.2232361	-489.2668457	1496.545776	-11.4789505	-247.0825195	1770.731079	-155.3573456	-402.0113525	1562.596802	-32.84857941	-391.3088074	1220.917603	100.995079	-426.1614075	1174.752075	-2.240509033	-447.8865662	1730.774536	-132.2383881	-482.9575806	1345.272339	42.33666992	-298.5785828	1506.047119	-201.6726074	-246.7519684	1332.796631	-202.6543884	-516.1993408	1505.95752	-119.4190216	-484.832489	1307.679321	-210.4379883	-408.7351074	1197.834839	49.377285	-365.7922287	1320.237976	-206.5461884	-380.6496124	1552.097229	-199.4388351	-451.2904968	1727.638977	-190.7308121	-498.2536112	1466.971883	-69.4531517
1744	17.43	-460.5707397	1532.81189	-6.084897995	-518.1146851	1362.022705	-82.97851562	-350.6943359	1493.182983	-8.137899399	-462.7744141	1598.096924	-197.2624054	-406.398407	1494.525269	-9.507174492	-249.3518372	1769.326416	-251.7857361	-406.7851868	1510.890991	22.27265739	-398.509613	1564.414063	-381.3464966	-454.753479	1724.50415	-249.3106384	-489.3125	1496.523193	-11.54531002	-247.1801605	1770.734985	-155.3849487	-402.0162659	1562.58728	-32.90013123	-391.3039551	1220.93396	101.0130005	-426.085144	1174.730347	-2.232148647	-447.974884	1730.695557	-132.3433228	-482.9692688	1345.259033	42.31651306	-298.5787048	1506.084839	-201.6832123	-246.7527313	1332.797729	-202.6545105	-516.208252	1505.917114	-119.5414963	-484.7934265	1307.664795	-210.472702	-408.6945496	1197.832153	49.39042592	-365.7730789	1320.231262	-206.5636063	-380.6765594	1552.090881	-199.4728088	-451.3641815	1727.599854	-190.8269806	-498.2978923	1466.917236	-69.53496997
1745	17.44	-460.6057739	1532.80896	-6.137341499	-518.0688477	1362.023315	-83.05994415	-350.7430115	1493.187256	-8.156518936	-462.828186	1598.069702	-197.2664032	-406.4316406	1494.517456	-9.548381805	-249.4590454	1769.380371	-251.8569641	-406.8335876	1510.936279	22.22608566	-398.4909058	1564.336914	-381.3865662	-454.8282166	1724.427368	-249.3434448	-489.3258362	1496.497681	-11.6202116	-247.2929688	1770.730835	-155.4454346	-402.1111755	1562.601807	-32.99990082	-391.2547302	1220.974365	101.0569229	-426.0326538	1174.724731	-2.207503319	-448.0704956	1730.653076	-132.4285278	-482.9803467	1345.272461	42.28076172	-298.551239	1506.061401	-201.690155	-246.7483978	1332.819824	-202.6747589	-516.2451172	1505.829224	-119.5541611	-484.7562866	1307.56189	-210.488266	-408.643692	1197.849548	49.4247098	-365.7523422	1320.190857	-206.5815125	-380.6897125	1552.065552	-199.4782791	-451.4493561	1727.540222	-190.8859863	-498.3065796	1466.887166	-69.58381557
1746	17.45	-460.6698303	1532.779907	-6.238838196	-518.0966797	1361.962646	-83.09929657	-350.7825623	1493.198608	-8.211055756	-462.8234558	1598.07959	-197.3258972	-406.4480896	1494.525879	-9.604738235	-249.5643463	1769.443726	-251.8954773	-406.8518982	1510.951172	22.16791916	-398.493103	1564.313721	-381.4351501	-454.9411926	1724.385376	-249.3754425	-489.3614807	1496.50293	-11.68062305	-247.462265	1770.782471	-155.4645233	-402.1355896	1562.629761	-33.04515839	-391.2103271	1220.998047	101.0288544	-426.0133057	1174.797607	-2.208854198	-448.1473083	1730.630005	-132.484314	-482.9989014	1345.246582	42.23058701	-298.5396118	1506.096313	-201.7645416	-246.7758942	1332.821655	-202.6719666	-516.2788086	1505.829346	-119.6133728	-484.7650452	1307.54834	-210.5402374	-408.6118164	1197.897827	49.41000009	-365.7704697	1320.184998	-206.606102	-380.6815338	1552.087952	-199.5452194	-451.5442505	1727.50769	-190.9298782	-498.3484395	1466.8573	-69.65050252
1747	17.46	-460.6634521	1532.795044	-6.28072834	-518.1357422	1361.968628	-83.24395752	-350.8002014	1493.240601	-8.261701584	-462.8391724	1598.082642	-197.4126587	-406.4725342	1494.559326	-9.657170296	-249.6814117	1769.536377	-251.8840637	-406.8814697	1510.985596	22.17829895	-398.4692078	1564.279297	-381.466217	-455.0588379	1724.356567	-249.3991547	-489.3984985	1496.52356	-11.73577404	-247.5996094	1770.843628	-155.4832458	-402.1708374	1562.624878	-33.08548737	-391.2622375	1221.069092	101.0962753	-425.9699097	1174.798218	-2.208360195	-448.225647	1730.579224	-132.5323334	-482.9996033	1345.282227	42.11968613	-298.4840088	1506.140869	-201.7722473	-246.7553253	1332.870605	-202.615387	-516.2854614	1505.840698	-119.6751633	-484.672821	1307.523071	-210.5564575	-408.6160736	1197.933655	49.44395757	-365.7140732	1320.196838	-206.5859222	-380.6615906	1552.111755	-199.592453	-451.6422424	1727.467896	-190.965744	-498.3615519	1466.868123	-69.73328304
1748	17.47	-460.6514893	1532.797485	-6.339337349	-518.1608276	1361.941772	-83.28386688	-350.7955322	1493.264404	-8.302226067	-462.8710938	1598.009888	-197.4776917	-406.4544373	1494.57312	-9.699796677	-249.8468628	1769.651245	-251.9919739	-406.8665161	1511.016113	22.11054039	-398.4570618	1564.2771	-381.5310669	-455.1673279	1724.266113	-249.4613495	-489.4182129	1496.52417	-11.78298569	-247.7888489	1770.938843	-155.5211182	-402.1936035	1562.660645	-33.14004135	-391.2043152	1221.170044	101.0634613	-425.9554138	1174.794434	-2.157772064	-448.3680725	1730.466431	-132.5895081	-483.017395	1345.235596	42.08572388	-298.4540405	1506.153442	-201.8148499	-246.723526	1332.848633	-202.6728821	-516.3128662	1505.811157	-119.7596054	-484.638031	1307.484741	-210.5760193	-408.5798645	1197.982239	49.45284462	-365.6807785	1320.166687	-206.6244507	-380.6625671	1552.081665	-199.6462708	-451.7677002	1727.366272	-191.0254288	-498.375061	1466.850138	-69.79426988
